<svg width="31" height="27" viewBox="0 0 31 27" fill="none" xmlns="http://www.w3.org/2000/svg">
<g clip-path="url(#clip0)">
<path d="M5.55222 25.0594C5.40109 25.8087 6.24972 26.3942 6.99759 26.0601L15.5032 22.2531L24.0069 26.0601C24.7548 26.3942 25.6034 25.8087 25.4523 25.0611L23.8442 17.0792L30.668 11.416C31.3074 10.8861 30.978 9.91748 30.1217 9.81285L20.6318 8.63835L16.4003 1.33654C16.3197 1.18853 16.1925 1.06347 16.0335 0.975906C15.8746 0.888341 15.6903 0.841858 15.5023 0.841858C15.3142 0.841858 15.1299 0.888341 14.971 0.975906C14.812 1.06347 14.6848 1.18853 14.6042 1.33654L10.3727 8.64004L0.882844 9.81454C0.0284066 9.91916 -0.302906 10.8878 0.334532 11.4177L7.16034 17.0809L5.55222 25.0628V25.0594ZM15.0557 20.3901L7.91403 23.5862L9.25866 16.9088C9.29016 16.7551 9.27783 16.597 9.22277 16.4484C9.1677 16.2998 9.07158 16.1653 8.94285 16.0566L3.31247 11.3822L11.1632 10.4102C11.3258 10.3888 11.48 10.3335 11.6126 10.2488C11.7452 10.1642 11.8523 10.0528 11.9247 9.92423L15.4993 3.75135L19.0779 9.92423C19.1503 10.0528 19.2574 10.1642 19.39 10.2488C19.5226 10.3335 19.6768 10.3888 19.8393 10.4102L27.6901 11.3805L22.0597 16.0549C21.9307 16.1637 21.8344 16.2986 21.7793 16.4475C21.7242 16.5964 21.7121 16.7548 21.7439 16.9088L23.0885 23.5862L15.9469 20.3901C15.8088 20.3281 15.6557 20.2957 15.5003 20.2957C15.3449 20.2957 15.1918 20.3281 15.0537 20.3901H15.0557Z" fill="#F0AC54"/>
</g>
<defs>
<clipPath id="clip0">
<rect width="31" height="27" fill="white"/>
</clipPath>
</defs>
</svg>
