<svg width="209" height="157" viewBox="0 0 209 157" fill="none" xmlns="http://www.w3.org/2000/svg">
<path d="M185.437 35.3434C184.152 33.7532 182.443 32.4549 180.457 31.5583C178.47 30.6616 176.263 30.193 174.023 30.1922H139.333V12.0769C139.329 8.875 137.86 5.80528 135.248 3.54121C132.636 1.27713 129.094 0.00359605 125.4 0H13.9333C10.2393 0.00359605 6.69767 1.27713 4.08556 3.54121C1.47345 5.80528 0.00414884 8.875 0 12.0769V135.865H23.1128C24.3369 141.791 27.9263 147.155 33.2529 151.019C38.5796 154.883 45.3042 157 52.25 157C59.1958 157 65.9204 154.883 71.2471 151.019C76.5737 147.155 80.1631 141.791 81.3872 135.865H127.613C128.837 141.791 132.426 147.155 137.753 151.019C143.08 154.883 149.804 157 156.75 157C163.696 157 170.42 154.883 175.747 151.019C181.074 147.155 184.663 141.791 185.887 135.865H209V67.3747C209.003 65.5159 208.344 63.7016 207.111 62.1805L185.437 35.3434ZM13.9246 12.0769H125.4V78.4997H13.9333L13.9246 12.0769ZM52.25 144.923C49.1498 144.923 46.1192 144.126 43.5414 142.633C40.9637 141.14 38.9546 139.018 37.7682 136.535C36.5818 134.053 36.2714 131.321 36.8762 128.685C37.481 126.05 38.9739 123.629 41.1661 121.729C43.3583 119.829 46.1513 118.535 49.192 118.011C52.2326 117.486 55.3843 117.755 58.2486 118.784C61.1128 119.812 63.5609 121.554 65.2833 123.788C67.0057 126.022 67.925 128.649 67.925 131.336C67.9204 134.938 66.2674 138.392 63.3288 140.939C60.3902 143.486 56.4059 144.919 52.25 144.923V144.923ZM156.75 144.923C153.65 144.923 150.619 144.126 148.041 142.633C145.464 141.14 143.455 139.018 142.268 136.535C141.082 134.053 140.771 131.321 141.376 128.685C141.981 126.05 143.474 123.629 145.666 121.729C147.858 119.829 150.651 118.535 153.692 118.011C156.733 117.486 159.884 117.755 162.749 118.784C165.613 119.812 168.061 121.554 169.783 123.788C171.506 126.022 172.425 128.649 172.425 131.336C172.42 134.938 170.767 138.392 167.829 140.939C164.89 143.486 160.906 144.919 156.75 144.923V144.923ZM195.067 123.788H185.049C183.188 118.542 179.434 113.952 174.341 110.691C169.248 107.43 163.082 105.671 156.75 105.671C150.418 105.671 144.252 107.43 139.159 110.691C134.066 113.952 130.312 118.542 128.451 123.788H80.5495C78.6876 118.542 74.9344 113.952 69.841 110.691C64.7475 107.43 58.5822 105.671 52.25 105.671C45.9178 105.671 39.7525 107.43 34.659 110.691C29.5656 113.952 25.8124 118.542 23.9505 123.788H13.9333V90.5766H195.067V123.788ZM195.067 78.4997H139.333V42.2691H174.023L195.067 68.3265V78.4997Z" fill="#008000"/>
</svg>
