<svg width="84" height="84" viewBox="0 0 84 84" fill="none" xmlns="http://www.w3.org/2000/svg">
<path d="M42 6.89062C36.4416 6.89062 31.5 5.25 31.5 5.25V5.57812C31.5 8.3629 32.6062 11.0336 34.5754 13.0027C36.5445 14.9719 39.2152 16.0781 42 16.0781C44.7848 16.0781 47.4555 14.9719 49.4246 13.0027C51.3938 11.0336 52.5 8.3629 52.5 5.57812V5.25C52.5 5.25 47.5584 6.89062 42 6.89062Z" fill="#F0AC54"/>
<path d="M57.75 7.21875C56.8493 15.0544 50.0735 21.1641 42 21.1641C33.9265 21.1641 27.1507 15.0544 26.25 7.21875L2.625 15.4219L5.57812 34.125L15.7024 35.3423C16.864 35.49 16.8673 35.49 16.8673 36.686L15.75 78.75H68.25L67.1327 36.686C67.0983 35.5376 67.0983 35.5376 68.2976 35.3423L78.4219 34.125L81.375 15.4219L57.75 7.21875Z" fill="#F0AC54"/>
</svg>
