<svg width="512" height="375" viewBox="0 0 512 375" fill="none" xmlns="http://www.w3.org/2000/svg">
<path d="M454.277 84.4189C451.128 80.6208 446.943 77.5197 442.075 75.378C437.208 73.2363 431.801 72.1171 426.314 72.1151H341.333V28.8461C341.323 21.1982 337.724 13.8661 331.325 8.4583C324.926 3.05048 316.25 0.0085893 307.2 0H34.1333C25.0837 0.0085893 16.4077 3.05048 10.0086 8.4583C3.60961 13.8661 0.0101637 21.1982 0 28.8461V324.518H56.6208C59.6195 338.673 68.4127 351.486 81.4617 360.714C94.5107 369.943 110.984 375 128 375C145.016 375 161.489 369.943 174.538 360.714C187.587 351.486 196.381 338.673 199.379 324.518H312.621C315.619 338.673 324.413 351.486 337.462 360.714C350.511 369.943 366.984 375 384 375C401.016 375 417.489 369.943 430.538 360.714C443.587 351.486 452.38 338.673 455.379 324.518H512V160.927C512.008 156.487 510.392 152.154 507.373 148.52L454.277 84.4189ZM34.112 28.8461H307.2V187.499H34.1333L34.112 28.8461ZM128 346.153C120.405 346.153 112.981 344.249 106.666 340.684C100.351 337.118 95.4294 332.049 92.523 326.12C89.6166 320.19 88.8562 313.665 90.3378 307.37C91.8195 301.075 95.4768 295.292 100.847 290.754C106.217 286.215 113.06 283.125 120.509 281.873C127.957 280.62 135.678 281.263 142.695 283.719C149.712 286.175 155.709 290.335 159.928 295.672C164.148 301.008 166.4 307.282 166.4 313.701C166.389 322.305 162.339 330.553 155.14 336.637C147.941 342.721 138.181 346.143 128 346.153ZM384 346.153C376.405 346.153 368.981 344.249 362.666 340.684C356.351 337.118 351.429 332.049 348.523 326.12C345.617 320.19 344.856 313.665 346.338 307.37C347.82 301.075 351.477 295.292 356.847 290.754C362.217 286.215 369.06 283.125 376.509 281.873C383.957 280.62 391.678 281.263 398.695 283.719C405.712 286.175 411.709 290.335 415.928 295.672C420.148 301.008 422.4 307.282 422.4 313.701C422.389 322.305 418.339 330.553 411.14 336.637C403.941 342.721 394.181 346.143 384 346.153ZM477.867 295.672H453.327C448.766 283.142 439.571 272.178 427.094 264.389C414.616 256.601 399.512 252.398 384 252.398C368.488 252.398 353.384 256.601 340.906 264.389C328.429 272.178 319.234 283.142 314.673 295.672H197.327C192.766 283.142 183.571 272.178 171.094 264.389C158.616 256.601 143.512 252.398 128 252.398C112.488 252.398 97.384 256.601 84.9063 264.389C72.4286 272.178 63.2342 283.142 58.6731 295.672H34.1333V216.345H477.867V295.672ZM477.867 187.499H341.333V100.961H426.314L477.867 163.2V187.499Z" fill="white"/>
</svg>
