<svg width="80" height="58" viewBox="0 0 80 58" fill="none" xmlns="http://www.w3.org/2000/svg">
<path d="M70 7.8292H21.4062L20.9375 6.36123C20.4167 4.48548 19.2448 2.95634 17.4219 1.7738C15.599 0.591268 13.4375 0 10.9375 0H3.28125C2.34375 0 1.5625 0.244663 0.9375 0.733988C0.3125 1.22331 0 1.87575 0 2.69129C0 3.42528 0.3125 4.03693 0.9375 4.52626C1.5625 5.01558 2.34375 5.26025 3.28125 5.26025H10.9375C12.9167 5.26025 14.0625 5.95346 14.375 7.33988L22.0312 38.6567C22.6562 40.3693 23.8802 41.7557 25.7031 42.816C27.526 43.8762 29.5312 44.4063 31.7188 44.4063H63.2812C64.3229 44.4063 65.1562 44.1616 65.7812 43.6723C66.4062 43.1829 66.7188 42.5713 66.7188 41.8373C66.7188 40.0431 65.5729 39.146 63.2812 39.146H31.7188C30.2604 39.146 29.2188 38.6567 28.5938 37.678L28.2812 36.5771H61.7188C63.8021 36.5771 65.7031 36.0877 67.4219 35.1091C69.1406 34.1304 70.3125 32.8663 70.9375 31.3168L80 16.2701V15.6584C80 13.4564 79.0365 11.6011 77.1094 10.0923C75.1823 8.58358 72.8125 7.8292 70 7.8292ZM30 31.3168H27.0312L22.6562 13.0894H30V31.3168ZM43.2812 31.3168H36.7188V13.0894H43.2812V31.3168ZM56.7188 31.3168H50V13.0894H56.7188V31.3168ZM65 29.2372V29.4818C64.6875 30.2974 64.1146 30.8275 63.2812 31.0721V13.0894H70C71.875 13.0894 72.9688 13.7827 73.2812 15.1691L65 29.2372ZM40 52.2355C40 53.7034 39.349 54.9471 38.0469 55.9666C36.7448 56.986 35.1562 57.4957 33.2812 57.4957C31.5104 57.4957 29.974 56.986 28.6719 55.9666C27.3698 54.9471 26.7188 53.7034 26.7188 52.2355C26.7188 50.7675 27.3698 49.5238 28.6719 48.5044C29.974 47.4849 31.5104 46.9752 33.2812 46.9752C35.1562 46.9752 36.7448 47.4849 38.0469 48.5044C39.349 49.5238 40 50.7675 40 52.2355ZM66.7188 52.2355C66.7188 53.7034 66.0677 54.9471 64.7656 55.9666C63.4635 56.986 61.875 57.4957 60 57.4957C58.125 57.4957 56.5365 56.986 55.2344 55.9666C53.9323 54.9471 53.2812 53.7034 53.2812 52.2355C53.2812 50.7675 53.9323 49.5238 55.2344 48.5044C56.5365 47.4849 58.125 46.9752 60 46.9752C61.875 46.9752 63.4635 47.4849 64.7656 48.5044C66.0677 49.5238 66.7188 50.7675 66.7188 52.2355Z" fill="#F0AC54"/>
</svg>
