<svg width="30" height="24" viewBox="0 0 30 24" fill="none" xmlns="http://www.w3.org/2000/svg">
<path d="M28.9286 0H1.07143C0.478795 0 0 0.4875 0 1.09091V22.9091C0 23.5125 0.478795 24 1.07143 24H28.9286C29.5212 24 30 23.5125 30 22.9091V1.09091C30 0.4875 29.5212 0 28.9286 0ZM2.41071 2.45455H27.5893V6.54545H2.41071V2.45455ZM27.5893 21.5455H2.41071V9.54545H27.5893V21.5455ZM19.654 19.3636H25.1786C25.3259 19.3636 25.4464 19.2409 25.4464 19.0909V16.6364C25.4464 16.4864 25.3259 16.3636 25.1786 16.3636H19.654C19.5067 16.3636 19.3862 16.4864 19.3862 16.6364V19.0909C19.3862 19.2409 19.5067 19.3636 19.654 19.3636Z" fill="#808080"/>
</svg>
