<svg width="165" height="161" viewBox="0 0 165 161" fill="none" xmlns="http://www.w3.org/2000/svg">
<path d="M5.5 59.0325L2.31 54.664L0 56.274V59.0325H5.5ZM82.5 5.3658L85.69 0.997333C84.7585 0.350198 83.6435 0.00244141 82.5 0.00244141C81.3565 0.00244141 80.2415 0.350198 79.31 0.997333L82.5 5.3658ZM159.5 59.0325H165V56.274L162.69 54.664L159.5 59.0325ZM27.5 91.2325V85.8658H22V91.2325H27.5ZM71.5 91.2325H77V85.8658H71.5V91.2325ZM11 160.999V59.0325H0V160.999H11ZM8.69 63.4009L85.69 9.73427L79.31 0.997333L2.31 54.664L8.69 63.4009ZM79.31 9.73427L156.31 63.4009L162.69 54.664L85.69 0.997333L79.31 9.73427ZM154 59.0325V160.999H165V59.0325H154ZM33 160.999V91.2325H22V160.999H33ZM27.5 96.5991H71.5V85.8658H27.5V96.5991ZM66 91.2325V160.999H77V91.2325H66ZM55 128.799H71.5V118.066H55V128.799ZM121 85.8658V128.799H132V85.8658H121ZM143 21.4658V48.2991H154V21.4658H143Z" fill="white"/>
</svg>
