<svg width="165" height="161" viewBox="0 0 165 161" fill="none" xmlns="http://www.w3.org/2000/svg">
<path d="M5.5 59.03L2.31 54.6616L0 56.2716V59.03H5.5ZM82.5 5.36336L85.69 0.994892C84.7585 0.347757 83.6435 0 82.5 0C81.3565 0 80.2415 0.347757 79.31 0.994892L82.5 5.36336ZM159.5 59.03H165V56.2716L162.69 54.6616L159.5 59.03ZM27.5 91.23V85.8634H22V91.23H27.5ZM71.5 91.23H77V85.8634H71.5V91.23ZM11 160.997V59.03H0V160.997H11ZM8.69 63.3985L85.69 9.73182L79.31 0.994892L2.31 54.6616L8.69 63.3985V63.3985ZM79.31 9.73182L156.31 63.3985L162.69 54.6616L85.69 0.994892L79.31 9.73182V9.73182ZM154 59.03V160.997H165V59.03H154ZM33 160.997V91.23H22V160.997H33ZM27.5 96.5967H71.5V85.8634H27.5V96.5967ZM66 91.23V160.997H77V91.23H66ZM55 128.797H71.5V118.063H55V128.797ZM121 85.8634V128.797H132V85.8634H121ZM143 21.4634V48.2967H154V21.4634H143Z" fill="#008000"/>
</svg>
