<svg width="15" height="15" viewBox="0 0 20 20" fill="none" xmlns="http://www.w3.org/2000/svg">
<path d="M6.46855 19.1648C6.61953 19.4232 6.81856 19.6337 7.04914 19.779C7.27973 19.9242 7.53522 20 7.79445 20C8.05368 20 8.30917 19.9242 8.53975 19.779C8.77034 19.6337 8.96937 19.4232 9.12034 19.1648L19.9224 0.798795C20.1173 0.46544 19.9224 0 19.589 0H17.1834C16.6602 0 16.1627 0.308195 15.855 0.836532L7.79701 14.5481L4.14503 8.33388C3.83728 7.81183 3.34488 7.49734 2.81657 7.49734H0.410985C0.0775875 7.49734 -0.117322 7.96278 0.0775874 8.29614L6.46855 19.1648Z" fill="#008000"/>
</svg>
