<svg width="31" height="30" viewBox="0 0 31 25" fill="none" xmlns="http://www.w3.org/2000/svg">
<path d="M30.9181 8.97502C30.8206 8.74363 30.6413 8.54032 30.4022 8.39017C30.1631 8.24003 29.8747 8.14963 29.5727 8.13013L20.7361 7.56396L16.9122 0.738612C16.7904 0.518781 16.5923 0.332067 16.3419 0.201005C16.0914 0.0699422 15.7992 0.000132331 15.5006 1.87948e-07C15.202 -0.000131955 14.9098 0.0694193 14.6591 0.20026C14.4085 0.331101 14.2102 0.517639 14.0881 0.737362L10.2642 7.56396L1.4276 8.13013C1.1307 8.1491 0.84687 8.23663 0.610055 8.38226C0.373239 8.52789 0.193471 8.72545 0.0922556 8.95131C-0.00895964 9.17716 -0.0273359 9.42175 0.0393256 9.65581C0.105987 9.88986 0.254863 10.1035 0.468144 10.2711L6.99833 15.4042L4.68882 23.4681C4.61869 23.7122 4.64117 23.9676 4.75333 24.2013C4.86549 24.435 5.06216 24.6361 5.31781 24.7785C5.57347 24.9209 5.87631 24.9981 6.18703 25C6.49775 25.0019 6.80202 24.9284 7.06033 24.7892L15.5001 20.2523L23.9399 24.7892C24.204 24.9305 24.5153 25.0033 24.8322 24.9977C25.149 24.9921 25.4561 24.9084 25.7122 24.7578C25.9683 24.6073 26.1611 24.3971 26.2646 24.1556C26.3681 23.9141 26.3774 23.6528 26.2913 23.4069L23.4563 15.4079L30.4872 10.3061C30.9475 9.97114 31.1165 9.44871 30.9181 8.97502V8.97502Z" fill="#F0AC54"/>
</svg>
