<svg width="38" height="34" viewBox="0 0 38 34" fill="none" xmlns="http://www.w3.org/2000/svg">
<path d="M12.0694 32.4339C12.3511 32.8712 12.7224 33.2275 13.1527 33.4734C13.5829 33.7192 14.0596 33.8474 14.5433 33.8474C15.027 33.8474 15.5037 33.7192 15.9339 33.4734C16.3642 33.2275 16.7355 32.8712 17.0172 32.4339L37.1723 1.35186C37.536 0.787696 37.1723 0 36.5502 0H32.0618C31.0856 0 30.1573 0.521581 29.583 1.41572L14.5481 24.6208L7.73402 14.104C7.15981 13.2205 6.24106 12.6883 5.25531 12.6883H0.766837C0.144767 12.6883 -0.218905 13.476 0.144767 14.0401L12.0694 32.4339Z" fill="white"/>
</svg>
