<svg width="149" height="125" viewBox="0 0 149 125" fill="none" xmlns="http://www.w3.org/2000/svg">
<path d="M148.943 34.7968L138.308 3.54855C137.938 2.47058 137.218 1.54086 136.258 0.901377C135.298 0.261894 134.15 -0.0521954 132.991 0.00708269H16.0094C14.8499 -0.0521954 13.7024 0.261894 12.7423 0.901377C11.7821 1.54086 11.0621 2.47058 10.6921 3.54855L0.0574556 34.7968C-0.0191519 35.3498 -0.0191519 35.9104 0.0574556 36.4634V67.7116C0.0574556 69.0928 0.617672 70.4175 1.61486 71.3942C2.61206 72.3709 3.96454 72.9196 5.37478 72.9196H10.6921V125H21.3268V72.9196H53.2307V125H138.308V72.9196H143.625C145.035 72.9196 146.388 72.3709 147.385 71.3942C148.382 70.4175 148.943 69.0928 148.943 67.7116V36.4634C149.019 35.9104 149.019 35.3498 148.943 34.7968ZM127.673 114.584H63.8653V72.9196H127.673V114.584ZM138.308 62.5035H117.039V41.6714H106.404V62.5035H79.8173V41.6714H69.1827V62.5035H42.5961V41.6714H31.9614V62.5035H10.6921V37.2966L19.8379 10.4232H129.162L138.308 37.2966V62.5035Z" fill="white"/>
</svg>
