<svg width="200" height="200" viewBox="0 0 200 200" fill="none" xmlns="http://www.w3.org/2000/svg">
<path d="M85.5295 171.05C104.506 171.046 122.936 164.694 137.884 153.004L184.883 200L200 184.883L153.002 137.888C164.698 122.938 171.054 104.505 171.059 85.5249C171.059 38.3686 132.688 0 85.5295 0C38.3707 0 0 38.3686 0 85.5249C0 132.681 38.3707 171.05 85.5295 171.05ZM85.5295 21.3812C120.907 21.3812 149.677 50.1497 149.677 85.5249C149.677 120.9 120.907 149.669 85.5295 149.669C50.1523 149.669 21.3824 120.9 21.3824 85.5249C21.3824 50.1497 50.1523 21.3812 85.5295 21.3812Z" fill="white"/>
</svg>
