<svg width="22" height="17" viewBox="0 0 22 17" fill="none" xmlns="http://www.w3.org/2000/svg">
<path d="M9.33392 13.0005C11.1904 13.0005 12.9709 12.4135 14.2837 11.3686C15.5964 10.3238 16.3339 8.90667 16.3339 7.42904C16.3339 5.9514 15.5964 4.53429 14.2837 3.48944C12.9709 2.4446 11.1904 1.85761 9.33392 1.85761C7.47741 1.85761 5.69693 2.4446 4.38417 3.48944C3.07142 4.53429 2.33392 5.9514 2.33392 7.42904C2.33392 8.90667 3.07142 10.3238 4.38417 11.3686C5.69693 12.4135 7.47741 13.0005 9.33392 13.0005ZM16.7073 11.9846L20.8839 15.3089C20.9953 15.3946 21.0841 15.4971 21.1451 15.6105C21.2061 15.7238 21.2382 15.8456 21.2394 15.9689C21.2407 16.0922 21.2111 16.2145 21.1523 16.3286C21.0935 16.4427 21.0068 16.5463 20.8972 16.6334C20.7876 16.7205 20.6573 16.7894 20.5138 16.836C20.3704 16.8826 20.2168 16.906 20.0619 16.9049C19.907 16.9037 19.7539 16.878 19.6116 16.8293C19.4693 16.7805 19.3406 16.7097 19.2331 16.621L15.0564 13.2967C13.181 14.4554 10.8212 15.0017 8.45747 14.8244C6.09375 14.647 3.90379 13.7594 2.3334 12.3422C0.763 10.9249 -0.0697807 9.08463 0.00458385 7.1959C0.0789484 5.30716 1.05487 3.51197 2.73367 2.17578C4.41248 0.839589 6.66797 0.0628365 9.041 0.00364837C11.414 -0.0555398 13.7262 0.607285 15.5068 1.85719C17.2875 3.1071 18.4027 4.85013 18.6255 6.73145C18.8483 8.61277 18.1619 10.491 16.7061 11.9837L16.7073 11.9846Z" fill="white"/>
</svg>
