<svg width="40" height="47" viewBox="0 0 40 47" fill="none" xmlns="http://www.w3.org/2000/svg">
<path d="M17.5784 36.1446C21.0748 36.1446 24.4279 34.5127 26.9002 31.6077C29.3725 28.7028 30.7614 24.7628 30.7614 20.6546C30.7614 16.5464 29.3725 12.6065 26.9002 9.70155C24.4279 6.79661 21.0748 5.16463 17.5784 5.16463C14.0821 5.16463 10.7289 6.79661 8.25665 9.70155C5.78436 12.6065 4.39544 16.5464 4.39544 20.6546C4.39544 24.7628 5.78436 28.7028 8.25665 31.6077C10.7289 34.5127 14.0821 36.1446 17.5784 36.1446ZM31.4645 33.3203L39.3304 42.5627C39.5401 42.801 39.7073 43.086 39.8222 43.4011C39.9372 43.7161 39.9976 44.055 39.9999 44.3977C40.0023 44.7405 39.9465 45.0804 39.8358 45.3976C39.7251 45.7148 39.5618 46.0029 39.3554 46.2451C39.1489 46.4874 38.9035 46.6789 38.6334 46.8084C38.3633 46.938 38.0739 47.0031 37.7822 46.9999C37.4905 46.9967 37.2022 46.9252 36.9342 46.7897C36.6662 46.6542 36.4239 46.4573 36.2214 46.2106L28.3555 36.9682C24.8235 40.1897 20.3794 41.7086 15.9278 41.2155C11.4763 40.7225 7.35195 38.2547 4.39445 34.3144C1.43695 30.3741 -0.131417 25.2576 0.0086327 20.0064C0.148682 14.7553 1.98662 9.76419 5.14829 6.04923C8.30996 2.33427 12.5577 0.174702 17.0268 0.0101434C21.4959 -0.154415 25.8503 1.68841 29.2038 5.16347C32.5572 8.63854 34.6575 13.4846 35.0771 18.7152C35.4967 23.9457 34.2041 29.1676 31.4623 33.3177L31.4645 33.3203Z" fill="#F0AC54"/>
</svg>
