<svg width="84" height="84" viewBox="0 0 84 84" fill="none" xmlns="http://www.w3.org/2000/svg">
<path d="M18.8998 8.40002C18.3429 8.40002 17.8087 8.62127 17.4149 9.0151C17.0211 9.40893 16.7998 9.94307 16.7998 10.5V73.5C16.7998 74.057 17.0211 74.5911 17.4149 74.9849C17.8087 75.3788 18.3429 75.6 18.8998 75.6H29.3998V39.9C29.3998 39.3431 29.6211 38.8089 30.0149 38.4151C30.4087 38.0213 30.9429 37.8 31.4998 37.8C32.0568 37.8 32.5909 38.0213 32.9847 38.4151C33.3786 38.8089 33.5998 39.3431 33.5998 39.9V75.6H65.0998C65.6568 75.6 66.1909 75.3788 66.5847 74.9849C66.9786 74.5911 67.1998 74.057 67.1998 73.5V10.5C67.1998 9.94307 66.9786 9.40893 66.5847 9.0151C66.1909 8.62127 65.6568 8.40002 65.0998 8.40002H18.8998ZM31.4998 27.3C30.6644 27.3 29.8632 26.9681 29.2724 26.3774C28.6817 25.7867 28.3498 24.9855 28.3498 24.15C28.3498 23.3146 28.6817 22.5134 29.2724 21.9226C29.8632 21.3319 30.6644 21 31.4998 21C32.3352 21 33.1365 21.3319 33.7272 21.9226C34.3179 22.5134 34.6498 23.3146 34.6498 24.15C34.6498 24.9855 34.3179 25.7867 33.7272 26.3774C33.1365 26.9681 32.3352 27.3 31.4998 27.3Z" fill="#F0AC54"/>
</svg>
