<svg width="89" height="77" viewBox="0 0 89 77" fill="none" xmlns="http://www.w3.org/2000/svg">
<path d="M47.8798 77L34.1743 70.5475V0C34.9465 0.143389 36.0081 0.358473 37.3594 0.645251C38.7106 0.93203 41.1557 1.64898 44.6947 2.79609C48.2337 3.9432 51.4188 5.16201 54.2499 6.45251C57.0811 7.74302 59.848 9.53538 62.5504 11.8296C65.2529 14.1238 66.9902 16.5615 67.7624 19.1425C69.0493 23.7309 69.4353 27.71 68.9206 31.0796C68.4058 34.4493 67.5693 37.0661 66.4111 38.9302C65.2529 40.7942 64.2234 41.798 63.3226 41.9413C61.5209 42.2281 59.9123 42.0489 58.4967 41.4036C57.0811 40.7584 56.1159 40.0773 55.6012 39.3603L54.829 38.2849V16.3464L48.0728 13.1201L47.8798 77ZM51.3544 67.3212V75.4944C72.7169 67.8948 84.9425 62.5894 88.031 59.5782C90.0901 57.5708 88.8675 54.8464 84.3634 51.405C78.9584 47.1034 73.9395 45.311 69.3067 46.0279C69.0493 46.1713 68.7919 46.243 68.5345 46.243C62.6148 46.6732 56.9524 48.1788 51.5475 50.7598V58.2877L72.0091 52.6955L79.3445 56.352L51.3544 67.3212ZM30.8927 66.676C28.0615 68.2533 23.5574 69.0419 17.3803 69.0419C12.3614 68.8985 8.17896 68.0382 4.83302 66.4609C1.48708 64.8836 -0.12154 62.6611 0.00714944 59.7933C0.00714944 56.7821 3.09571 53.7351 9.27282 50.6522C15.4499 47.5694 22.5922 45.311 30.6997 43.8771V52.4804L14.2917 57.4274C12.4901 60.0084 12.8118 61.3706 15.2569 61.514C17.8307 61.514 20.4367 61.3347 23.0748 60.9763C25.713 60.6178 27.6755 60.2235 28.9624 59.7933L30.8927 59.148V66.676Z" fill="#F0AC54"/>
</svg>
