<svg width="69" height="69" viewBox="0 0 69 69" fill="none" xmlns="http://www.w3.org/2000/svg">
<path d="M56.0625 54.2143C54.6699 54.2143 53.2324 53.9062 51.75 53.2902V54.2143C51.75 58.3214 50.4922 61.8125 47.9766 64.6875C45.4609 67.5625 42.4062 69 38.8125 69H12.9375C9.34375 69 6.28906 67.5625 3.77344 64.6875C1.25781 61.8125 0 58.3214 0 54.2143V4.92857C0 3.54241 0.415527 2.37444 1.24658 1.42467C2.07764 0.474888 3.09961 0 4.3125 0H47.4375C48.6504 0 49.6724 0.474888 50.5034 1.42467C51.3345 2.37444 51.75 3.54241 51.75 4.92857V10.7042C53.1426 10.1395 54.5801 9.85714 56.0625 9.85714C59.6562 9.85714 62.7109 11.2946 65.2266 14.1696C67.7422 17.0446 69 20.5357 69 24.6429V39.4286C69 43.5357 67.7422 47.0268 65.2266 49.9018C62.7109 52.7768 59.6562 54.2143 56.0625 54.2143ZM60.375 26.26C60.375 24.4632 59.7461 22.923 58.4883 21.6395C57.2305 20.356 55.7031 19.7143 53.9062 19.7143C53.1875 19.7143 52.4688 19.8426 51.75 20.0993V43.9721C52.4688 44.2288 53.1875 44.3571 53.9062 44.3571C55.7031 44.3571 57.2305 43.7154 58.4883 42.4319C59.7461 41.1484 60.375 39.6083 60.375 37.8114V26.26Z" fill="#F0AC54"/>
</svg>
