<svg width="39" height="26" viewBox="0 0 39 26" fill="none" xmlns="http://www.w3.org/2000/svg">
<path d="M17.139 19.9949C20.5479 19.9949 23.8172 19.0921 26.2277 17.4851C28.6382 15.8781 29.9924 13.6986 29.9924 11.426C29.9924 9.15335 28.6382 6.9738 26.2277 5.36682C23.8172 3.75983 20.5479 2.85703 17.139 2.85703C13.73 2.85703 10.4607 3.75983 8.05023 5.36682C5.63975 6.9738 4.28555 9.15335 4.28555 11.426C4.28555 13.6986 5.63975 15.8781 8.05023 17.4851C10.4607 19.0921 13.73 19.9949 17.139 19.9949ZM30.6779 18.4325L38.3471 23.5453C38.5516 23.6771 38.7146 23.8348 38.8267 24.0091C38.9388 24.1834 38.9977 24.3708 38.9999 24.5605C39.0022 24.7501 38.9478 24.9381 38.8399 25.1136C38.732 25.289 38.5728 25.4484 38.3715 25.5824C38.1702 25.7164 37.9309 25.8223 37.6676 25.894C37.4042 25.9657 37.1221 26.0017 36.8377 25.9999C36.5532 25.9982 36.2721 25.9586 36.0109 25.8837C35.7496 25.8087 35.5133 25.6998 35.3159 25.5633L27.6466 20.4505C24.2029 22.2326 19.8699 23.0728 15.5296 22.8001C11.1894 22.5273 7.16816 21.1622 4.28459 18.9824C1.40102 16.8027 -0.128132 13.9723 0.00841689 11.0674C0.144965 8.16249 1.93695 5.40147 5.01958 3.34638C8.10221 1.2913 12.2437 0.0966435 16.6011 0.00561125C20.9585 -0.085421 25.2041 0.934014 28.4737 2.85639C31.7433 4.77877 33.7911 7.45957 34.2002 10.3531C34.6093 13.2466 33.349 16.1353 30.6758 18.4311L30.6779 18.4325Z" fill="white"/>
</svg>
