<svg width="327" height="296" viewBox="0 0 327 296" fill="none" xmlns="http://www.w3.org/2000/svg">
<path d="M286.125 40.3064H87.498L85.582 32.7489C83.4531 23.0922 78.6631 15.2199 71.2119 9.13192C63.7607 3.04397 54.9258 0 44.707 0H13.4121C9.58008 0 6.38672 1.25957 3.83203 3.77872C1.27734 6.29787 0 9.65674 0 13.8553C0 17.634 1.27734 20.783 3.83203 23.3021C6.38672 25.8213 9.58008 27.0809 13.4121 27.0809H44.707C52.7969 27.0809 57.4805 30.6496 58.7578 37.7872L90.0527 199.013C92.6074 207.83 97.6104 214.967 105.062 220.426C112.513 225.884 120.709 228.613 129.65 228.613H258.662C262.92 228.613 266.326 227.353 268.881 224.834C271.436 222.315 272.713 219.166 272.713 215.387C272.713 206.15 268.029 201.532 258.662 201.532H129.65C123.689 201.532 119.432 199.013 116.877 193.974L115.6 188.306H252.275C260.791 188.306 268.562 185.787 275.587 180.749C282.612 175.711 287.402 169.203 289.957 161.226L327 83.7617V80.6128C327 69.2766 323.062 59.7248 315.185 51.9574C307.308 44.1901 297.621 40.3064 286.125 40.3064ZM122.625 161.226H110.49L92.6074 67.3872H122.625V161.226ZM176.912 161.226H150.088V67.3872H176.912V161.226ZM231.838 161.226H204.375V67.3872H231.838V161.226ZM265.688 150.519V151.779C264.41 155.977 262.068 158.706 258.662 159.966V67.3872H286.125C293.789 67.3872 298.26 70.956 299.537 78.0936L265.688 150.519ZM163.5 268.919C163.5 276.477 160.839 282.879 155.517 288.128C150.194 293.376 143.701 296 136.037 296C128.799 296 122.519 293.376 117.196 288.128C111.874 282.879 109.213 276.477 109.213 268.919C109.213 261.362 111.874 254.959 117.196 249.711C122.519 244.462 128.799 241.838 136.037 241.838C143.701 241.838 150.194 244.462 155.517 249.711C160.839 254.959 163.5 261.362 163.5 268.919ZM272.713 268.919C272.713 276.477 270.052 282.879 264.729 288.128C259.407 293.376 252.914 296 245.25 296C237.586 296 231.093 293.376 225.771 288.128C220.448 282.879 217.787 276.477 217.787 268.919C217.787 261.362 220.448 254.959 225.771 249.711C231.093 244.462 237.586 241.838 245.25 241.838C252.914 241.838 259.407 244.462 264.729 249.711C270.052 254.959 272.713 261.362 272.713 268.919Z" fill="#F3F3F3"/>
</svg>
