<svg width="70" height="70" viewBox="0 0 70 70" fill="none" xmlns="http://www.w3.org/2000/svg">
<path d="M15.505 6.02C15.75 5.81 15.995 5.6 16.17 5.46C21.63 1.925 28 0 35 0C41.58 0 47.74 1.75 52.99 4.97C53.375 5.25 54.39 5.915 54.95 6.58C49.875 0.98 35 12.95 35 12.95C29.75 8.995 25.095 6.3 21.56 5.25C18.585 4.515 16.555 5.25 15.61 5.95L15.505 6.02ZM60.69 11.235C60.515 11.06 60.34 10.885 60.2 10.71C58.94 9.31 57.33 8.96 56 9.065C54.635 9.485 48.65 11.62 41.3 18.585C41.3 18.585 49.595 26.635 54.67 34.86C59.745 43.085 62.755 49.56 60.9 58.555C66.5 52.325 70 44.065 70 35C70 25.83 66.5 17.5 60.69 11.235ZM48.055 38.36C45.78 35.84 42.455 32.235 38.01 27.825C37.065 26.88 36.05 25.9 35 24.85C35 24.85 33.355 26.46 31.255 28.595C28.56 31.29 25.095 34.825 23.135 36.89C19.705 40.565 9.83503 52.115 9.27503 58.59C9.27503 58.59 7.00003 53.48 11.9 41.615C15.05 33.88 24.5 22.26 28.525 18.48C28.525 18.48 24.92 14.49 20.37 11.725L20.195 11.62C17.99 10.325 15.61 9.31 13.3 9.17C10.955 9.345 9.48503 11.06 9.48503 11.06C3.38204 17.5358 -0.0116715 26.1015 3.01604e-05 35C3.01604e-05 44.2826 3.68752 53.185 10.2513 59.7487C13.5013 62.9988 17.3597 65.5769 21.6061 67.3358C25.8525 69.0947 30.4038 70 35 70C45.255 70 54.495 65.59 60.9 58.555C60.9 58.555 60.165 53.9 55.44 47.25C54.355 45.745 50.295 40.915 48.055 38.36Z" fill="#F0AC54"/>
</svg>
